<?xml version="1.0" encoding="utf-8"?>
<!-- Generator: Adobe Illustrator 25.4.1, SVG Export Plug-In . SVG Version: 6.00 Build 0)  -->
<svg version="1.1" xmlns="http://www.w3.org/2000/svg" xmlns:xlink="http://www.w3.org/1999/xlink" x="0px" y="0px"
	 viewBox="0 0 109.5 90.8" style="enable-background:new 0 0 109.5 90.8;" xml:space="preserve">
<style type="text/css">
	.st0{fill:#DFE5E1;}
	.st1{fill:#C1CEC5;}
	.st2{fill:#E1D7A5;}
	.st3{fill:#FFFFFF;}
	.st4{fill:#435A60;}
	.st5{fill:#2F455B;}
	.st6{fill:#A3B2A7;}
	.st7{fill:none;}
	.st8{clip-path:url(#SVGID_00000013170019313657210670000003596854300723212955_);}
	.st9{fill:none;stroke:#DFE5E1;stroke-miterlimit:10;}
	.st10{fill:none;stroke:#2F455B;stroke-miterlimit:10;}
	.st11{fill:none;stroke:#2F455B;stroke-width:2;stroke-miterlimit:10;}
</style>
<g id="Ebene_1">
	<g>
		<g>
			<path class="st5" d="M61.8,18.8l0-6.6c-2.8-1.3-6.1-1.6-8.5,0.8c-2.4,2.4-2.6,6.2-2.6,9.6c0,9.9,0,18.6,0,28.5
				c0,0.9,0,1.8-0.2,2.7c-0.6,3.6-2.5,6.3-6.1,7.5c-4.9,1.6-10.4-0.8-12.7-5.7c-2.3-4.9-1.3-9.5,2.6-13.5c0.2-0.2,0.5-0.5,0.5-0.5
				c0-0.8,0-3.4,0-4.3c-0.3,0.2-0.5,0.3-0.7,0.5c-5.9,4.4-8.4,10.3-7.1,17.6c2.2,12,16.5,18.8,27.7,10.4c4.8-3.6,7.1-8.6,7.1-14.6
				C61.8,39,61.8,30.9,61.8,18.8z M57.9,15.6c-1.7,0.5-2.1,1.8-2.4,3.1c-0.3,1.2-2.9,1.4-2.3-1.5c0.8-3.7,3.8-4.3,4.8-4.1
				c0.5,0.1,0.8,0.3,1,0.6C59.5,14.6,58.8,15.3,57.9,15.6z"/>
			<path class="st5" d="M81.2,40.2c-1.3-6-5.5-11-13.2-12.8l0.5-0.5c2.8-3.2,4.9-6.3,4.2-11.4c-0.1-0.4-0.2-0.9-0.3-1.3
				C70.1,5.5,60.7,0,51.8,1.7c-8.6,1.6-14.7,9.1-14.7,17.9c0,12.2,0,20,0,32.2c0,0.5,0,0.9,0,1.4c0,1.2,0,1.3,0,2.4c0,0.1,0,1,0,1
				c0,0.1,0,1.2,0,1.3c2.7,2,6.1,1.8,8.3,0.1c3.1-2.4,2.7-8.7,2.7-12.6c0.1-10,0-15.8,0-25.8c0-0.9,0.1-1.9,0.2-2.8
				c0.6-3.6,3.7-7.1,7.5-7.6c4.9-0.7,9.9,2.1,11.4,6.4c1.1,3.4,0.2,6.6-2.8,9.7c-0.2,0.2-0.4,0.4-0.4,0.4c0,0.8,0,3.5,0,4.3
				c0.2,0,0.1,0,0.2,0c0.1,0,0.2,0,0.3,0c0.2,0,0.3,0,0.5,0c3.6,0.4,5.4,1.5,7.1,3.8c1.3,2.1,1.5,3.1,1.6,5.1
				c0.2,5.7-2.7,11.6-9.6,12.9c-0.1,3.5-0.9,6.7-2.7,9.9c1.6-0.2,3.1-0.2,4.5-0.5c3.9-0.6,7.4-2,10.2-4.8
				C80.8,52,82.3,46.5,81.2,40.2z"/>
		</g>
		<g>
			<path class="st5" d="M5.1,82.7c-0.4-0.2-0.9-0.2-1.3-0.2c-0.5,0-0.8,0.1-1.1,0.3c-0.3,0.2-0.4,0.5-0.4,0.9c0,0.5,0.4,0.8,1.1,1.2
				c0.5,0.3,0.9,0.4,1.1,0.5c0.2,0.1,0.4,0.2,0.5,0.4c0.2,0.2,0.3,0.4,0.4,0.6c0.1,0.2,0.2,0.5,0.2,0.8c0,0.7-0.2,1.3-0.7,1.7
				c-0.5,0.4-1.1,0.6-1.7,0.6c-0.6,0-1.2-0.1-1.7-0.4l0.2-0.7c0.6,0.3,1.1,0.4,1.5,0.4c0.5,0,0.9-0.1,1.2-0.4
				c0.3-0.3,0.4-0.6,0.4-1.1c0-0.3-0.1-0.6-0.3-0.8C4.3,86.2,4,86,3.4,85.7c-0.5-0.2-0.9-0.4-1-0.5c-0.2-0.1-0.3-0.2-0.5-0.4
				c-0.2-0.2-0.3-0.3-0.4-0.5c-0.1-0.2-0.1-0.4-0.1-0.6c0-0.6,0.2-1.1,0.7-1.4c0.4-0.3,1-0.5,1.7-0.5c0.5,0,1,0.1,1.5,0.2L5.1,82.7z
				"/>
			<path class="st5" d="M8.4,81.9h1.9c0.7,0,1.3,0.2,1.7,0.5c0.4,0.4,0.6,0.9,0.6,1.5c0,0.6-0.2,1.1-0.6,1.5c-0.4,0.4-1,0.6-1.7,0.6
				H9.3v3.3H8.4V81.9z M9.3,85.2h0.9c1,0,1.5-0.4,1.5-1.3c0-0.4-0.1-0.7-0.4-1c-0.3-0.2-0.6-0.4-1.1-0.4h-1V85.2z"/>
			<path class="st5" d="M18.8,89.3h-3.4v-0.8h1.3v-5.9h-1.3v-0.8h3.4v0.8h-1.2v5.9h1.2V89.3z"/>
			<path class="st5" d="M25.9,89.3h-3.9v-7.4h3.9v0.8h-3v2.3h2.9v0.8h-2.9v2.9h3V89.3z"/>
			<path class="st5" d="M32.9,89.3h-4.1v-7.4h0.9v6.7h3.2V89.3z"/>
			<path class="st5" d="M39.6,89.3h-3.9v-7.4h3.9v0.8h-3v2.3h2.9v0.8h-2.9v2.9h3V89.3z"/>
			<path class="st5" d="M46.8,89.3h-0.8v-6.4L44.8,86H44l-1.1-3.1v6.4H42v-7.4h1.1l1.2,3.4l1.2-3.4h1.1V89.3z"/>
			<path class="st5" d="M54.2,89.3h-0.9l-0.8-2.6H50l-0.8,2.6h-0.9l2.4-7.4h1L54.2,89.3z M52.2,85.9l-1-3.1l-1,3.1H52.2z"/>
			<path class="st5" d="M60.3,89.3h-1l-2.7-5.9v5.9h-0.9v-7.4h1l2.7,5.8v-5.8h0.9V89.3z"/>
			<path class="st5" d="M67,87c0,0.9-0.2,1.5-0.5,1.9c-0.4,0.4-0.9,0.6-1.6,0.6c-1.4,0-2.2-0.8-2.2-2.5v-5.1h0.9v5
				c0,1.2,0.4,1.8,1.3,1.8c0.4,0,0.8-0.1,1-0.4c0.2-0.3,0.3-0.7,0.3-1.4v-5H67V87z"/>
			<path class="st5" d="M73.7,82.6h-3.1V85h2.8v0.8h-2.8v3.5h-0.9v-7.4h3.9V82.6z"/>
			<path class="st5" d="M81.4,89.3h-0.9l-0.8-2.6h-2.4l-0.8,2.6h-0.9l2.4-7.4h1L81.4,89.3z M79.4,85.9l-1-3.1l-1,3.1H79.4z"/>
			<path class="st5" d="M88.4,89.3h-1.1l-2.5-3.7L84,86.5v2.8h-0.9v-7.4H84v3.6l3.3-3.6h1L85.4,85L88.4,89.3z"/>
			<path class="st5" d="M94.8,82.6h-2.3v6.7h-0.9v-6.7h-2.3v-0.7h5.5V82.6z"/>
			<path class="st5" d="M101,87c0,0.9-0.2,1.5-0.5,1.9c-0.4,0.4-0.9,0.6-1.6,0.6c-1.4,0-2.2-0.8-2.2-2.5v-5.1h0.9v5
				c0,1.2,0.4,1.8,1.3,1.8c0.4,0,0.8-0.1,1-0.4c0.2-0.3,0.3-0.7,0.3-1.4v-5h0.9V87z"/>
			<path class="st5" d="M108.7,89.3h-1.1l-2.2-3.4h-1v3.4h-0.9v-7.4h2.1c0.7,0,1.3,0.2,1.7,0.5c0.4,0.3,0.6,0.8,0.6,1.4
				c0,0.5-0.1,0.9-0.4,1.2c-0.3,0.4-0.7,0.6-1.2,0.7L108.7,89.3z M104.4,85.2h1.1c0.5,0,0.8-0.1,1.1-0.4c0.3-0.2,0.4-0.6,0.4-0.9
				c0-0.8-0.5-1.2-1.5-1.2h-1.1V85.2z"/>
		</g>
	</g>
</g>
<g id="Ebene_2">
</g>
<g id="Ebene_3">
</g>
<g id="Ebene_4">
</g>
<g id="Ebene_5">
</g>
</svg>
